# File created by Blade
# Date/Time:  Wed Jan 21 15:55:51 2015
# Frame Rate: 120.000 fps
#------------------------------------------------------
:FULLY-SPECIFIED
:DEGREES
777
root 23.755680 15.336972 -12.843795 -176.335993 12.614451 -202.972379
Spine 20.160972 -11.968241 53.017693
Head 10.720280 22.593676 25.717766
LeftShoulder -13.461997 -54.550612 58.217262
LeftArm 38.905479 -16.418666 14.090791
LeftForeArm 22.774483 -0.000000 -3.904901
LeftHand -9.736576 -0.000000 9.487346
LeftHandThumb1 -26.253704 0.000000 33.147579
RightShoulder -9.566302 2.488139 -5.072463
RightArm 13.535209 46.527531 64.175559
RightForeArm -18.478792 -0.000000 64.239422
RightHand -16.895685 0.000000 -73.200692
RightHandThumb1 -24.326973 -0.000000 -32.862282
LeftUpLeg 2.489471 32.137714 38.153413
LeftLeg -0.580047 -0.000000 0.000000
LeftFoot -2.810625 15.616525 -25.081490
LeftToeBase 44.130010 -0.000000 -0.000000
RightUpLeg -106.466303 -17.928802 -7.980545
RightLeg 132.920765 -0.000000 -0.000000
RightFoot -65.801255 -36.392069 35.434994
RightToeBase 21.659197 -0.000000 -0.000000
778
root 23.752871 15.336457 -12.856962 -176.345980 12.594039 -202.962124
Spine 20.226232 -11.933809 52.976914
Head 10.582894 22.592429 25.754670
LeftShoulder -13.646772 -54.579372 58.469814
LeftArm 38.730358 -16.330815 13.963512
LeftForeArm 22.797770 -0.000000 -3.895466
LeftHand -9.733181 -0.000000 9.711074
LeftHandThumb1 -26.253704 0.000000 33.147579
RightShoulder -9.698288 1.439624 -4.692442
RightArm 15.091784 46.919685 65.036432
RightForeArm -18.402809 -0.000000 64.158335
RightHand -16.984115 0.000000 -73.233005
RightHandThumb1 -24.326973 -0.000000 -32.862282
LeftUpLeg 2.513392 32.134879 38.175539
LeftLeg -0.583104 -0.000000 0.000000
LeftFoot -2.806226 15.575193 -25.049549
LeftToeBase 44.257378 -0.000000 -0.000000
RightUpLeg -106.396756 -17.945546 -8.019706
RightLeg 132.931205 -0.000000 -0.000000
RightFoot -65.852105 -36.441544 35.436903
RightToeBase 21.664554 -0.000000 -0.000000
779
root 23.750087 15.335126 -12.872338 -176.346409 12.576275 -202.979613
Spine 20.242812 -11.906983 52.939728
Head 10.516369 22.542357 25.697254
LeftShoulder -13.621051 -54.493483 58.358999
LeftArm 38.618681 -16.339163 14.037826
LeftForeArm 22.736638 -0.000000 -3.944718
LeftHand -9.728577 -0.000000 9.634501
LeftHandThumb1 -26.253704 0.000000 33.147579
RightShoulder -9.600962 1.845263 -4.789467
RightArm 14.204739 46.812130 64.390154
RightForeArm -18.229202 -0.000000 64.159374
RightHand -16.931092 -0.000000 -73.267186
RightHandThumb1 -24.326973 -0.000000 -32.862282
LeftUpLeg 2.535221 32.157778 38.164402
LeftLeg -0.604606 -0.000000 0.000000
LeftFoot -2.816032 15.540096 -25.070985
LeftToeBase 44.314232 -0.000000 -0.000000
RightUpLeg -106.352115 -17.967519 -8.080881
RightLeg 132.954458 -0.000000 -0.000000
RightFoot -65.896875 -36.430331 35.464726
RightToeBase 21.817104 -0.000000 -0.000000
780
root 23.748508 15.334473 -12.885445 -176.323146 12.546853 -202.985901
Spine 20.234604 -11.854936 52.926467
Head 10.466475 22.516208 25.654511
LeftShoulder -13.595751 -54.530495 58.314393
LeftArm 38.438190 -16.203537 14.136594
LeftForeArm 22.662578 -0.000000 -3.936100
LeftHand -9.675514 -0.000000 9.789600
LeftHandThumb1 -26.253704 0.000000 33.147579
RightShoulder -9.588812 1.966365 -4.784911
RightArm 13.837780 46.792658 64.066312
RightForeArm -18.103604 -0.000000 64.156878
RightHand -16.955851 -0.000000 -73.201772
RightHandThumb1 -24.326973 -0.000000 -32.862282
LeftUpLeg 2.521760 32.198553 38.149342
LeftLeg -0.618293 -0.000000 0.000000
LeftFoot -2.783447 15.486073 -25.036481
LeftToeBase 44.260030 -0.000000 -0.000000
RightUpLeg -106.318614 -17.989112 -8.127955
RightLeg 132.971776 -0.000000 -0.000000
RightFoot -65.966799 -36.480618 35.484177
RightToeBase 21.853202 -0.000000 -0.000000
781
root 23.746206 15.334783 -12.899541 -176.311214 12.524410 -202.984319
Spine 20.249365 -11.850981 52.932444
Head 10.457657 22.534843 25.565358
LeftShoulder -13.616330 -54.621250 58.251661
LeftArm 38.320969 -16.079237 14.182837
LeftForeArm 22.655158 0.000000 -3.899372
LeftHand -9.532537 -0.000000 9.408640
LeftHandThumb1 -26.253704 0.000000 33.147579
RightShoulder -9.587995 1.934256 -4.774574
RightArm 13.760661 46.806524 63.961303
RightForeArm -18.016836 -0.000000 64.161123
RightHand -16.941663 -0.000000 -73.231249
RightHandThumb1 -24.326973 -0.000000 -32.862282
LeftUpLeg 2.537170 32.230207 38.148352
LeftLeg -0.651367 -0.000000 0.000000
LeftFoot -2.775764 15.449701 -25.019909
LeftToeBase 44.334326 -0.000000 -0.000000
RightUpLeg -106.272331 -18.003252 -8.171222
RightLeg 132.991058 -0.000000 -0.000000
RightFoot -65.999038 -36.502590 35.510514
RightToeBase 21.817563 -0.000000 -0.000000
